<?xml version="1.0" encoding="UTF-8" standalone="no"?>
<svg
   xmlns:dc="http://purl.org/dc/elements/1.1/"
   xmlns:cc="http://creativecommons.org/ns#"
   xmlns:rdf="http://www.w3.org/1999/02/22-rdf-syntax-ns#"
   xmlns:svg="http://www.w3.org/2000/svg"
   xmlns="http://www.w3.org/2000/svg"
   viewBox="0 0 150 45"
   height="45"
   width="150"
   xml:space="preserve"
   version="1.1"
   id="svg2"><metadata
     id="metadata8"><rdf:RDF><cc:Work
         rdf:about=""><dc:format>image/svg+xml</dc:format><dc:type
           rdf:resource="http://purl.org/dc/dcmitype/StillImage" /><dc:title></dc:title></cc:Work></rdf:RDF></metadata><defs
     id="defs6"><linearGradient
       id="linearGradient50"
       spreadMethod="pad"
       gradientTransform="matrix(0.8,0,0,-0.8,0,161.6)"
       gradientUnits="userSpaceOnUse"
       y2="166.5079"
       x2="15.0173"
       y1="183.2903"
       x1="31.7997"><stop
         id="stop52"
         offset="0"
         style="stop-opacity:1;stop-color:#00a0ff" /><stop
         id="stop54"
         offset="0.0066"
         style="stop-opacity:1;stop-color:#00a1ff" /><stop
         id="stop56"
         offset="0.2601"
         style="stop-opacity:1;stop-color:#00beff" /><stop
         id="stop58"
         offset="0.5122"
         style="stop-opacity:1;stop-color:#00d2ff" /><stop
         id="stop60"
         offset="0.7604"
         style="stop-opacity:1;stop-color:#00dfff" /><stop
         id="stop62"
         offset="1"
         style="stop-opacity:1;stop-color:#00e3ff" /></linearGradient><linearGradient
       id="linearGradient68"
       spreadMethod="pad"
       gradientTransform="matrix(0.8,0,0,-0.8,0,161.6)"
       gradientUnits="userSpaceOnUse"
       y2="171.9986"
       x2="19.637501"
       y1="171.9986"
       x1="43.8344"><stop
         id="stop70"
         offset="0"
         style="stop-opacity:1;stop-color:#ffe000" /><stop
         id="stop72"
         offset="0.4087"
         style="stop-opacity:1;stop-color:#ffbd00" /><stop
         id="stop74"
         offset="0.7754"
         style="stop-opacity:1;stop-color:#ffa500" /><stop
         id="stop76"
         offset="1"
         style="stop-opacity:1;stop-color:#ff9c00" /></linearGradient><linearGradient
       id="linearGradient82"
       spreadMethod="pad"
       gradientTransform="matrix(0.8,0,0,-0.8,0,161.6)"
       gradientUnits="userSpaceOnUse"
       y2="146.9456"
       x2="12.0687"
       y1="169.7039"
       x1="34.827"><stop
         id="stop84"
         offset="0"
         style="stop-opacity:1;stop-color:#ff3a44" /><stop
         id="stop86"
         offset="1"
         style="stop-opacity:1;stop-color:#c31162" /></linearGradient><linearGradient
       id="linearGradient92"
       spreadMethod="pad"
       gradientTransform="matrix(0.8,0,0,-0.8,0,161.6)"
       gradientUnits="userSpaceOnUse"
       y2="181.6613"
       x2="27.4599"
       y1="191.82381"
       x1="17.2973"><stop
         id="stop94"
         offset="0"
         style="stop-opacity:1;stop-color:#32a071" /><stop
         id="stop96"
         offset="0.0685"
         style="stop-opacity:1;stop-color:#2da771" /><stop
         id="stop98"
         offset="0.4762"
         style="stop-opacity:1;stop-color:#15cf74" /><stop
         id="stop100"
         offset="0.8009"
         style="stop-opacity:1;stop-color:#06e775" /><stop
         id="stop102"
         offset="1"
         style="stop-opacity:1;stop-color:#00f076" /></linearGradient><clipPath
       id="clipPath110"
       clipPathUnits="userSpaceOnUse"><path
         id="path112"
         d="M 0,0 124,0 124,48 0,48 0,0 Z" /></clipPath><mask
       id="mask114"
       height="1"
       width="1"
       y="0"
       x="0"
       maskUnits="userSpaceOnUse"><g
         id="g116"><g
           id="g118"
           clip-path="url(#clipPath110)"><path
             id="path120"
             style="fill:#000000;fill-opacity:0.2;fill-rule:nonzero;stroke:none"
             d="M 0,0 124,0 124,48 0,48 0,0 Z" /></g></g></mask><clipPath
       id="clipPath126"
       clipPathUnits="userSpaceOnUse"><path
         id="path128"
         d="M 0,0 124,0 124,48 0,48 0,0 Z" /></clipPath><clipPath
       id="clipPath130"
       clipPathUnits="userSpaceOnUse"><path
         id="path132"
         d="M 0,0 124,0 124,48 0,48 0,0 Z" /></clipPath><pattern
       id="pattern134"
       height="48"
       width="124"
       y="0"
       x="0"
       patternUnits="userSpaceOnUse"
       patternTransform="matrix(1,0,0,-1,0,48)"><g
         id="g136" /><g
         id="g138"><g
           id="g140"
           clip-path="url(#clipPath130)"><g
             id="g142"><path
               id="path144"
               style="fill:#000000;fill-opacity:1;fill-rule:nonzero;stroke:none"
               d="M 29.625,20.695 18.012,14.098 C 17.363,13.727 16.781,13.754 16.406,14.09 l -0.058,-0.063 0.058,-0.058 c 0.375,-0.336 0.957,-0.36 1.606,0.011 l 11.687,6.641 -0.074,0.074 z" /></g></g></g></pattern><clipPath
       id="clipPath158"
       clipPathUnits="userSpaceOnUse"><path
         id="path160"
         d="M 0,0 124,0 124,48 0,48 0,0 Z" /></clipPath><mask
       id="mask162"
       height="1"
       width="1"
       y="0"
       x="0"
       maskUnits="userSpaceOnUse"><g
         id="g164"><g
           id="g166"
           clip-path="url(#clipPath158)"><path
             id="path168"
             style="fill:#000000;fill-opacity:0.12000002;fill-rule:nonzero;stroke:none"
             d="M 0,0 124,0 124,48 0,48 0,0 Z" /></g></g></mask><clipPath
       id="clipPath174"
       clipPathUnits="userSpaceOnUse"><path
         id="path176"
         d="M 0,0 124,0 124,48 0,48 0,0 Z" /></clipPath><clipPath
       id="clipPath178"
       clipPathUnits="userSpaceOnUse"><path
         id="path180"
         d="M 0,0 124,0 124,48 0,48 0,0 Z" /></clipPath><pattern
       id="pattern182"
       height="48"
       width="124"
       y="0"
       x="0"
       patternUnits="userSpaceOnUse"
       patternTransform="matrix(1,0,0,-1,0,48)"><g
         id="g184" /><g
         id="g186"><g
           id="g188"
           clip-path="url(#clipPath178)"><g
             id="g190"><path
               id="path192"
               style="fill:#000000;fill-opacity:1;fill-rule:nonzero;stroke:none"
               d="m 16.348,14.145 c -0.235,0.246 -0.371,0.628 -0.371,1.125 l 0,-0.118 c 0,-0.496 0.136,-0.879 0.371,-1.125 l 0.058,0.063 -0.058,0.055 z" /></g></g></g></pattern><clipPath
       id="clipPath206"
       clipPathUnits="userSpaceOnUse"><path
         id="path208"
         d="M 0,0 124,0 124,48 0,48 0,0 Z" /></clipPath><mask
       id="mask210"
       height="1"
       width="1"
       y="0"
       x="0"
       maskUnits="userSpaceOnUse"><g
         id="g212"><g
           id="g214"
           clip-path="url(#clipPath206)"><path
             id="path216"
             style="fill:#000000;fill-opacity:0.12000002;fill-rule:nonzero;stroke:none"
             d="M 0,0 124,0 124,48 0,48 0,0 Z" /></g></g></mask><clipPath
       id="clipPath222"
       clipPathUnits="userSpaceOnUse"><path
         id="path224"
         d="M 0,0 124,0 124,48 0,48 0,0 Z" /></clipPath><clipPath
       id="clipPath226"
       clipPathUnits="userSpaceOnUse"><path
         id="path228"
         d="M 0,0 124,0 124,48 0,48 0,0 Z" /></clipPath><pattern
       id="pattern230"
       height="48"
       width="124"
       y="0"
       x="0"
       patternUnits="userSpaceOnUse"
       patternTransform="matrix(1,0,0,-1,0,48)"><g
         id="g232" /><g
         id="g234"><g
           id="g236"
           clip-path="url(#clipPath226)"><g
             id="g238"><path
               id="path240"
               style="fill:#000000;fill-opacity:1;fill-rule:nonzero;stroke:none"
               d="m 33.613,22.961 -3.988,-2.266 0.074,-0.074 3.914,2.223 c 0.559,0.316 0.836,0.734 0.836,1.156 -0.047,-0.379 -0.332,-0.75 -0.836,-1.039 z" /></g></g></g></pattern><clipPath
       id="clipPath254"
       clipPathUnits="userSpaceOnUse"><path
         id="path256"
         d="M 0,0 124,0 124,48 0,48 0,0 Z" /></clipPath><mask
       id="mask258"
       height="1"
       width="1"
       y="0"
       x="0"
       maskUnits="userSpaceOnUse"><g
         id="g260"><g
           id="g262"
           clip-path="url(#clipPath254)"><path
             id="path264"
             style="fill:#000000;fill-opacity:0.25;fill-rule:nonzero;stroke:none"
             d="M 0,0 124,0 124,48 0,48 0,0 Z" /></g></g></mask><clipPath
       id="clipPath270"
       clipPathUnits="userSpaceOnUse"><path
         id="path272"
         d="M 0,0 124,0 124,48 0,48 0,0 Z" /></clipPath><clipPath
       id="clipPath274"
       clipPathUnits="userSpaceOnUse"><path
         id="path276"
         d="M 0,0 124,0 124,48 0,48 0,0 Z" /></clipPath><pattern
       id="pattern278"
       height="48"
       width="124"
       y="0"
       x="0"
       patternUnits="userSpaceOnUse"
       patternTransform="matrix(1,0,0,-1,0,48)"><g
         id="g280" /><g
         id="g282"><g
           id="g284"
           clip-path="url(#clipPath274)"><g
             id="g286"><path
               id="path288"
               style="fill:#ffffff;fill-opacity:1;fill-rule:nonzero;stroke:none"
               d="m 18.012,33.902 15.601,-8.863 c 0.508,-0.289 0.789,-0.66 0.836,-1.039 0,0.418 -0.277,0.836 -0.836,1.156 L 18.012,34.02 c -1.117,0.632 -2.035,0.105 -2.035,-1.176 l 0,-0.114 c 0,1.278 0.918,1.805 2.035,1.172 z" /></g></g></g></pattern></defs><g
     transform="matrix(1.25,0,0,-1.25,-9.4247625,54.831299)"
     id="g10"><g
       transform="matrix(1,0,0,1.0001093,7.1465457,-8.6028372e-4)"
       id="g5075"><path
         id="path14"
         style="opacity:1;fill:#000000;fill-opacity:1;fill-rule:nonzero;stroke:none"
         d="m 115.82845,7.869588 -110.8827103,0 c -2.5027236,0 -4.55247539,2.0259036 -4.55247539,4.499508 l 0,26.997048 c 0,2.473605 2.04975179,4.499509 4.55247539,4.499509 l 110.8827103,0 c 2.50272,0 4.55248,-2.025904 4.55248,-4.499509 l 0,-26.997048 c 0,-2.4736044 -2.04976,-4.499508 -4.55248,-4.499508 z" /><path
         id="path16"
         style="fill:#e6e6e6;fill-opacity:1;fill-rule:nonzero;stroke:none;opacity:1"
         d="m 115.83261,43.144605 c 2.1078,0 3.82295,-1.695189 3.82295,-3.778461 l 0,-26.997048 c 0,-2.083272 -1.71515,-3.7784617 -3.82295,-3.7784617 l -110.8868703,0 c -2.1077964,0 -3.8229412,1.6951897 -3.8229412,3.7784617 l 0,26.997048 c 0,2.083272 1.7151448,3.778461 3.8229412,3.778461 l 110.8868703,0 m 0,0.721048 -110.8868703,0 c -2.5027236,0 -4.55247539,-2.025904 -4.55247539,-4.499509 l 0,-26.997048 c 0,-2.4736044 2.04975179,-4.499508 4.55247539,-4.499508 l 110.8868703,0 c 2.50272,0 4.55248,2.0259036 4.55248,4.499508 l 0,26.997048 c 0,2.473605 -2.04976,4.499509 -4.55248,4.499509 z" /><g
         style="opacity:1"
         id="g250"
         transform="matrix(1.1381187,0,0,1.1248769,-8.7116853,-1.1294281)"><g
           style=""
           id="g252" /></g><g
         transform="matrix(0.96666667,0,0,0.96666667,42.667179,-4.5366674)"
         id="g5234"><path
           style="opacity:1;fill:#85bf40;fill-opacity:1;fill-rule:nonzero;stroke:none;stroke-width:0.40000001;stroke-linecap:round;stroke-linejoin:round;stroke-miterlimit:4;stroke-dasharray:none;stroke-dashoffset:0;stroke-opacity:1"
           d="m -35.970798,28.64292 0,-7.89179 c 0,-1.017299 0.818638,-1.835737 1.835937,-1.835737 l 20.328125,0 c 1.0173,0 1.835938,0.818438 1.835938,1.835737 l 0,7.89179 -0.572955,0.353515 -22.730346,-0.05303 z"
           id="rect5182" /><path
           style="color:#000000direction:ltr;block-progression:tb;writing-mode:lr-tb;baseline-shift:baseline;text-anchor:start;white-space:normal;clip-rule:nonzero;display:inline;overflow:visible;visibility:visible;opacity:1;isolation:auto;mix-blend-mode:normal;color-interpolation:sRGB;color-interpolation-filters:linearRGB;solid-color:#000000;solid-opacity:1;fill:#93c756;fill-opacity:1;fill-rule:evenodd;stroke:none;stroke-width:1.11993885;stroke-linecap:round;stroke-linejoin:miter;stroke-miterlimit:4;stroke-dasharray:none;stroke-dashoffset:0;stroke-opacity:1;color-rendering:auto;image-rendering:auto;shape-rendering:auto;text-rendering:auto;enable-background:accumulate"
           d="m -40.962891,1.0664062 a 0.70003178,0.70010829 0 0 0 -0.583984,1.1035157 l 2.785156,4.375 a 15,15.000001 0 0 0 -6.693359,12.4804691 l 30,0 A 15,15.000001 0 0 0 -22.126953,6.5625 l 2.794922,-4.3925781 a 0.70003178,0.70010829 0 1 0 -1.179688,-0.7519531 l -2.816406,4.4238281 A 15,15.000001 0 0 0 -30.455078,4.0253906 15,15.000001 0 0 0 -37.5625,5.8203125 l -2.804688,-4.4023437 a 0.70003178,0.70010829 0 0 0 -0.595703,-0.3515626 z"
           transform="matrix(0.8,0,0,-0.79991257,0.3932643,43.861105)"
           id="path5215" /><path
           id="path5180"
           d="m -27.548923,-34.048531 a 1.4407301,1.4405726 0 0 1 -1.44073,1.440573 1.4407301,1.4405726 0 0 1 -1.44073,-1.440573 1.4407301,1.4405726 0 0 1 1.44073,-1.440572 1.4407301,1.4405726 0 0 1 1.44073,1.440572 z"
           style="opacity:1;fill:#ffffff;fill-opacity:1;fill-rule:nonzero;stroke:none;stroke-width:0.40000001;stroke-linecap:round;stroke-linejoin:round;stroke-miterlimit:4;stroke-dasharray:none;stroke-dashoffset:0;stroke-opacity:1"
           transform="scale(1,-1)" /><path
           id="ellipse5224"
           d="m -17.468232,-34.048531 a 1.4407301,1.4405726 0 0 1 -1.44073,1.440573 1.4407301,1.4405726 0 0 1 -1.44073,-1.440573 1.4407301,1.4405726 0 0 1 1.44073,-1.440572 1.4407301,1.4405726 0 0 1 1.44073,1.440572 z"
           style="opacity:1;fill:#ffffff;fill-opacity:1;fill-rule:nonzero;stroke:none;stroke-width:0.40000001;stroke-linecap:round;stroke-linejoin:round;stroke-miterlimit:4;stroke-dasharray:none;stroke-dashoffset:0;stroke-opacity:1"
           transform="scale(1,-1)" /></g><g
         transform="translate(0,-1.3154569)"
         id="g4417"><g
           style="opacity:1"
           id="g5059"
           transform="matrix(1.1354026,0,0,1.1354025,-8.9748719,-1.1294261)"><g
             id="text4405"
             style="fill:#ffffff;fill-opacity:1;stroke:#ffffff;stroke-width:0.13749084;stroke-linecap:butt;stroke-linejoin:miter;stroke-miterlimit:4;stroke-dasharray:none;stroke-opacity:1"
             transform="scale(1.0000546,-0.9999454)"><path
               id="path10772"
               style="fill:#ffffff;stroke:#ffffff;stroke-width:0.13749084;stroke-miterlimit:4;stroke-dasharray:none;stroke-opacity:1"
               d="m 41.139252,-29.31708 0,-4.775078 1.460534,0 q 1.093733,0 1.753975,0.660241 0.66691,0.660241 0.66691,1.727298 0,1.073726 -0.66691,1.733967 -0.660242,0.653572 -1.753975,0.653572 l -1.460534,0 z m 0.613558,-4.188197 0,3.601316 0.846976,0 q 0.833638,0 1.313814,-0.473506 0.480175,-0.480176 0.480175,-1.327152 0,-0.840307 -0.480175,-1.320483 -0.480176,-0.480175 -1.313814,-0.480175 l -0.846976,0 z" /><path
               id="path10774"
               style="fill:#ffffff;stroke:#ffffff;stroke-width:0.13749084;stroke-miterlimit:4;stroke-dasharray:none;stroke-opacity:1"
               d="m 50.580358,-31.704619 q 0,1.060388 -0.706925,1.773982 -0.713595,0.720263 -1.747306,0.720263 -1.04038,0 -1.747305,-0.720263 -0.706925,-0.713594 -0.706925,-1.773982 0,-1.060388 0.706925,-1.773982 0.706925,-0.720263 1.747305,-0.720263 1.040381,0 1.747306,0.726932 0.706925,0.713594 0.706925,1.767313 z m -4.281565,0 q 0,0.826969 0.52019,1.367166 0.526859,0.540198 1.307144,0.540198 0.780285,0 1.300476,-0.540198 0.526859,-0.533528 0.526859,-1.367166 0,-0.833638 -0.526859,-1.367166 -0.520191,-0.540198 -1.300476,-0.540198 -0.780285,0 -1.307144,0.540198 -0.52019,0.540197 -0.52019,1.367166 z" /><path
               id="path10776"
               style="fill:#ffffff;stroke:#ffffff;stroke-width:0.13749084;stroke-miterlimit:4;stroke-dasharray:none;stroke-opacity:1"
               d="m 56.322611,-34.092158 0.640234,0 -1.273799,4.775078 -0.626896,0 -1.027042,-3.147817 -0.02668,0 -1.027043,3.147817 -0.626895,0 -1.327152,-4.775078 0.640234,0 1.007035,3.754705 0.02668,0 1.033711,-3.114471 0.573543,0 1.033712,3.114471 0.02668,0 0.953682,-3.754705 z" /><path
               id="path10778"
               style="fill:#ffffff;stroke:#ffffff;stroke-width:0.13749084;stroke-miterlimit:4;stroke-dasharray:none;stroke-opacity:1"
               d="m 58.317454,-29.31708 -0.613558,0 0,-4.775078 0.74694,0 2.320848,3.714691 0.02668,0 -0.02668,-0.920337 0,-2.794354 0.613558,0 0,4.775078 -0.640234,0 -2.427554,-3.894757 -0.02668,0 0.02668,0.920337 0,2.97442 z" /><path
               id="path10780"
               style="fill:#ffffff;stroke:#ffffff;stroke-width:0.13749084;stroke-miterlimit:4;stroke-dasharray:none;stroke-opacity:1"
               d="m 65.17699,-29.31708 -2.68098,0 0,-4.775078 0.613558,0 0,4.188197 2.067422,0 0,0.586881 z" /><path
               id="path10782"
               style="fill:#ffffff;stroke:#ffffff;stroke-width:0.13749084;stroke-miterlimit:4;stroke-dasharray:none;stroke-opacity:1"
               d="m 70.543377,-31.704619 q 0,1.060388 -0.706925,1.773982 -0.713595,0.720263 -1.747306,0.720263 -1.04038,0 -1.747305,-0.720263 -0.706925,-0.713594 -0.706925,-1.773982 0,-1.060388 0.706925,-1.773982 0.706925,-0.720263 1.747305,-0.720263 1.04038,0 1.747306,0.726932 0.706925,0.713594 0.706925,1.767313 z m -4.281566,0 q 0,0.826969 0.520191,1.367166 0.526859,0.540198 1.307144,0.540198 0.780285,0 1.300476,-0.540198 0.526859,-0.533528 0.526859,-1.367166 0,-0.833638 -0.526859,-1.367166 -0.520191,-0.540198 -1.300476,-0.540198 -0.780285,0 -1.307144,0.540198 -0.520191,0.540197 -0.520191,1.367166 z" /><path
               id="path10784"
               style="fill:#ffffff;stroke:#ffffff;stroke-width:0.13749084;stroke-miterlimit:4;stroke-dasharray:none;stroke-opacity:1"
               d="m 73.03267,-33.33855 -0.780285,2.154121 1.587247,0 -0.780286,-2.154121 -0.02668,0 z m -1.453865,4.02147 -0.680249,0 1.800659,-4.775078 0.693587,0 1.800658,4.775078 -0.680249,0 -0.460168,-1.293806 -2.007401,0 -0.466837,1.293806 z" /><path
               id="path10786"
               style="fill:#ffffff;stroke:#ffffff;stroke-width:0.13749084;stroke-miterlimit:4;stroke-dasharray:none;stroke-opacity:1"
               d="m 75.908459,-29.31708 0,-4.775078 1.460534,0 q 1.093733,0 1.753975,0.660241 0.66691,0.660241 0.66691,1.727298 0,1.073726 -0.66691,1.733967 -0.660242,0.653572 -1.753975,0.653572 l -1.460534,0 z m 0.613558,-4.188197 0,3.601316 0.846976,0 q 0.833638,0 1.313814,-0.473506 0.480175,-0.480176 0.480175,-1.327152 0,-0.840307 -0.480175,-1.320483 -0.480176,-0.480175 -1.313814,-0.480175 l -0.846976,0 z" /></g></g><g
           id="text4404"
           style="fill:#ffffff;fill-opacity:1;stroke:#ffffff;stroke-width:0.15999126;stroke-linecap:butt;stroke-linejoin:miter;stroke-miterlimit:4;stroke-dasharray:none;stroke-opacity:1"
           transform="scale(1.0000546,-0.99994539)"><path
             id="path10789"
             style="fill:#ffffff;stroke:#ffffff;stroke-width:0.15999126;stroke-miterlimit:4;stroke-dasharray:none"
             d="m 39.528917,-17.8776 q 0,0.436376 -0.311697,0.748073 -0.296112,0.311697 -0.748073,0.311697 -0.436376,0 -0.748073,-0.311697 -0.311697,-0.311697 -0.311697,-0.748073 0,-0.45196 0.311697,-0.748072 0.311697,-0.311697 0.748073,-0.311697 0.451961,0 0.748073,0.311697 0.311697,0.296112 0.311697,0.748072 z" /><path
             id="path10791"
             style="fill:#ffffff;stroke:#ffffff;stroke-width:0.15999126;stroke-miterlimit:4;stroke-dasharray:none"
             d="m 45.070549,-26.309004 -1.823428,5.033907 3.709195,0 -1.823428,-5.033907 -0.06234,0 z m -3.397498,9.397665 -1.589655,0 4.20791,-11.158753 1.620825,0 4.20791,11.158753 -1.589655,0 -1.075355,-3.023461 -4.69104,0 -1.09094,3.023461 z" /><path
             id="path10793"
             style="fill:#ffffff;stroke:#ffffff;stroke-width:0.15999126;stroke-miterlimit:4;stroke-dasharray:none"
             d="m 52.475301,-21.430946 0,4.519607 -1.433807,0 0,-11.158753 3.802704,0 q 1.449391,0 2.462406,0.96626 1.028601,0.966261 1.028601,2.353313 0,1.418221 -1.028601,2.368897 -0.99743,0.950676 -2.462406,0.950676 l -2.368897,0 z m 0,-5.267679 0,3.896212 2.400067,0 q 0.857166,0 1.418221,-0.576639 0.57664,-0.57664 0.57664,-1.371467 0,-0.779243 -0.57664,-1.355882 -0.561055,-0.592224 -1.418221,-0.592224 l -2.400067,0 z" /><path
             id="path10795"
             style="fill:#ffffff;stroke:#ffffff;stroke-width:0.15999126;stroke-miterlimit:4;stroke-dasharray:none"
             d="m 65.8566,-28.070092 1.854597,0 0,0.06234 -4.14557,4.784549 4.426098,6.249526 0,0.06234 -1.761089,0 -3.63127,-5.20534 -1.714334,1.979276 0,3.226064 -1.433806,0 0,-11.158753 1.433806,0 0,5.75081 0.06234,0 4.909228,-5.75081 z" /><path
             id="path10797"
             style="fill:#ffffff;stroke:#ffffff;stroke-width:0.15999126;stroke-miterlimit:4;stroke-dasharray:none"
             d="m 73.229938,-21.695888 0,4.784549 -1.433806,0 0,-11.158753 6.514468,0 0,1.371467 -5.080662,0 0,3.66244 4.581947,0 0,1.340297 -4.581947,0 z" /><path
             id="path10799"
             style="fill:#ffffff;stroke:#ffffff;stroke-width:0.15999126;stroke-miterlimit:4;stroke-dasharray:none"
             d="m 80.989247,-27.181756 q 0,0.420791 -0.296112,0.716903 -0.296112,0.296113 -0.716903,0.296113 -0.420791,0 -0.716903,-0.296113 -0.296113,-0.296112 -0.296113,-0.716903 0,-0.420791 0.296113,-0.716903 0.296112,-0.296112 0.716903,-0.296112 0.420791,0 0.716903,0.296112 0.296112,0.296112 0.296112,0.716903 z m -0.296112,2.63384 0,7.636577 -1.433806,0 0,-7.636577 1.433806,0 z" /><path
             id="path10801"
             style="fill:#ffffff;stroke:#ffffff;stroke-width:0.15999126;stroke-miterlimit:4;stroke-dasharray:none"
             d="m 83.620893,-28.070092 0,11.158753 -1.433806,0 0,-11.158753 1.433806,0 z" /><path
             id="path10803"
             style="fill:#ffffff;stroke:#ffffff;stroke-width:0.15999126;stroke-miterlimit:4;stroke-dasharray:none"
             d="m 88.302922,-16.661981 q -1.683164,0 -2.774104,-1.153279 -1.090939,-1.153279 -1.090939,-2.914367 0,-1.745504 1.05977,-2.898783 1.05977,-1.168864 2.711764,-1.168864 1.698749,0 2.696179,1.106525 1.013015,1.090939 1.013015,3.070216 l -0.01558,0.155848 -6.000168,0 q 0.03117,1.122109 0.748073,1.807843 0.716903,0.685733 1.714333,0.685733 1.371467,0 2.15071,-1.371467 l 1.277958,0.623394 q -0.5143,0.966261 -1.433807,1.511731 -0.903921,0.54547 -2.0572,0.54547 z m -2.290973,-4.987153 4.379343,0 q -0.06234,-0.794827 -0.654564,-1.309127 -0.576639,-0.529885 -1.558485,-0.529885 -0.810412,0 -1.402636,0.498715 -0.57664,0.498715 -0.763658,1.340297 z" /></g></g></g></g></svg>
