<?xml version="1.0" encoding="UTF-8" standalone="no"?>
<svg
   xmlns:dc="http://purl.org/dc/elements/1.1/"
   xmlns:cc="http://creativecommons.org/ns#"
   xmlns:rdf="http://www.w3.org/1999/02/22-rdf-syntax-ns#"
   xmlns:svg="http://www.w3.org/2000/svg"
   xmlns="http://www.w3.org/2000/svg"
   id="svg2"
   version="1.1"
   xml:space="preserve"
   width="150"
   height="45"
   viewBox="0 0 150 45"><metadata
     id="metadata8"><rdf:RDF><cc:Work
         rdf:about=""><dc:format>image/svg+xml</dc:format><dc:type
           rdf:resource="http://purl.org/dc/dcmitype/StillImage" /><dc:title></dc:title></cc:Work></rdf:RDF></metadata><defs
     id="defs6"><linearGradient
       x1="31.7997"
       y1="183.2903"
       x2="15.0173"
       y2="166.5079"
       gradientUnits="userSpaceOnUse"
       gradientTransform="matrix(0.8,0,0,-0.8,0,161.6)"
       spreadMethod="pad"
       id="linearGradient50"><stop
         style="stop-opacity:1;stop-color:#00a0ff"
         offset="0"
         id="stop52" /><stop
         style="stop-opacity:1;stop-color:#00a1ff"
         offset="0.0066"
         id="stop54" /><stop
         style="stop-opacity:1;stop-color:#00beff"
         offset="0.2601"
         id="stop56" /><stop
         style="stop-opacity:1;stop-color:#00d2ff"
         offset="0.5122"
         id="stop58" /><stop
         style="stop-opacity:1;stop-color:#00dfff"
         offset="0.7604"
         id="stop60" /><stop
         style="stop-opacity:1;stop-color:#00e3ff"
         offset="1"
         id="stop62" /></linearGradient><linearGradient
       x1="43.8344"
       y1="171.9986"
       x2="19.637501"
       y2="171.9986"
       gradientUnits="userSpaceOnUse"
       gradientTransform="matrix(0.8,0,0,-0.8,0,161.6)"
       spreadMethod="pad"
       id="linearGradient68"><stop
         style="stop-opacity:1;stop-color:#ffe000"
         offset="0"
         id="stop70" /><stop
         style="stop-opacity:1;stop-color:#ffbd00"
         offset="0.4087"
         id="stop72" /><stop
         style="stop-opacity:1;stop-color:#ffa500"
         offset="0.7754"
         id="stop74" /><stop
         style="stop-opacity:1;stop-color:#ff9c00"
         offset="1"
         id="stop76" /></linearGradient><linearGradient
       x1="34.827"
       y1="169.7039"
       x2="12.0687"
       y2="146.9456"
       gradientUnits="userSpaceOnUse"
       gradientTransform="matrix(0.8,0,0,-0.8,0,161.6)"
       spreadMethod="pad"
       id="linearGradient82"><stop
         style="stop-opacity:1;stop-color:#ff3a44"
         offset="0"
         id="stop84" /><stop
         style="stop-opacity:1;stop-color:#c31162"
         offset="1"
         id="stop86" /></linearGradient><linearGradient
       x1="17.2973"
       y1="191.82381"
       x2="27.4599"
       y2="181.6613"
       gradientUnits="userSpaceOnUse"
       gradientTransform="matrix(0.8,0,0,-0.8,0,161.6)"
       spreadMethod="pad"
       id="linearGradient92"><stop
         style="stop-opacity:1;stop-color:#32a071"
         offset="0"
         id="stop94" /><stop
         style="stop-opacity:1;stop-color:#2da771"
         offset="0.0685"
         id="stop96" /><stop
         style="stop-opacity:1;stop-color:#15cf74"
         offset="0.4762"
         id="stop98" /><stop
         style="stop-opacity:1;stop-color:#06e775"
         offset="0.8009"
         id="stop100" /><stop
         style="stop-opacity:1;stop-color:#00f076"
         offset="1"
         id="stop102" /></linearGradient><clipPath
       clipPathUnits="userSpaceOnUse"
       id="clipPath110"><path
         d="M 0,0 124,0 124,48 0,48 0,0 Z"
         id="path112" /></clipPath><mask
       maskUnits="userSpaceOnUse"
       x="0"
       y="0"
       width="1"
       height="1"
       id="mask114"><g
         id="g116"><g
           clip-path="url(#clipPath110)"
           id="g118"><path
             d="M 0,0 124,0 124,48 0,48 0,0 Z"
             style="fill:#000000;fill-opacity:0.2;fill-rule:nonzero;stroke:none"
             id="path120" /></g></g></mask><clipPath
       clipPathUnits="userSpaceOnUse"
       id="clipPath126"><path
         d="M 0,0 124,0 124,48 0,48 0,0 Z"
         id="path128" /></clipPath><clipPath
       clipPathUnits="userSpaceOnUse"
       id="clipPath130"><path
         d="M 0,0 124,0 124,48 0,48 0,0 Z"
         id="path132" /></clipPath><pattern
       patternTransform="matrix(1,0,0,-1,0,48)"
       patternUnits="userSpaceOnUse"
       x="0"
       y="0"
       width="124"
       height="48"
       id="pattern134"><g
         id="g136" /><g
         id="g138"><g
           clip-path="url(#clipPath130)"
           id="g140"><g
             id="g142"><path
               d="M 29.625,20.695 18.012,14.098 C 17.363,13.727 16.781,13.754 16.406,14.09 l -0.058,-0.063 0.058,-0.058 c 0.375,-0.336 0.957,-0.36 1.606,0.011 l 11.687,6.641 -0.074,0.074 z"
               style="fill:#000000;fill-opacity:1;fill-rule:nonzero;stroke:none"
               id="path144" /></g></g></g></pattern><clipPath
       clipPathUnits="userSpaceOnUse"
       id="clipPath158"><path
         d="M 0,0 124,0 124,48 0,48 0,0 Z"
         id="path160" /></clipPath><mask
       maskUnits="userSpaceOnUse"
       x="0"
       y="0"
       width="1"
       height="1"
       id="mask162"><g
         id="g164"><g
           clip-path="url(#clipPath158)"
           id="g166"><path
             d="M 0,0 124,0 124,48 0,48 0,0 Z"
             style="fill:#000000;fill-opacity:0.12000002;fill-rule:nonzero;stroke:none"
             id="path168" /></g></g></mask><clipPath
       clipPathUnits="userSpaceOnUse"
       id="clipPath174"><path
         d="M 0,0 124,0 124,48 0,48 0,0 Z"
         id="path176" /></clipPath><clipPath
       clipPathUnits="userSpaceOnUse"
       id="clipPath178"><path
         d="M 0,0 124,0 124,48 0,48 0,0 Z"
         id="path180" /></clipPath><pattern
       patternTransform="matrix(1,0,0,-1,0,48)"
       patternUnits="userSpaceOnUse"
       x="0"
       y="0"
       width="124"
       height="48"
       id="pattern182"><g
         id="g184" /><g
         id="g186"><g
           clip-path="url(#clipPath178)"
           id="g188"><g
             id="g190"><path
               d="m 16.348,14.145 c -0.235,0.246 -0.371,0.628 -0.371,1.125 l 0,-0.118 c 0,-0.496 0.136,-0.879 0.371,-1.125 l 0.058,0.063 -0.058,0.055 z"
               style="fill:#000000;fill-opacity:1;fill-rule:nonzero;stroke:none"
               id="path192" /></g></g></g></pattern><clipPath
       clipPathUnits="userSpaceOnUse"
       id="clipPath206"><path
         d="M 0,0 124,0 124,48 0,48 0,0 Z"
         id="path208" /></clipPath><mask
       maskUnits="userSpaceOnUse"
       x="0"
       y="0"
       width="1"
       height="1"
       id="mask210"><g
         id="g212"><g
           clip-path="url(#clipPath206)"
           id="g214"><path
             d="M 0,0 124,0 124,48 0,48 0,0 Z"
             style="fill:#000000;fill-opacity:0.12000002;fill-rule:nonzero;stroke:none"
             id="path216" /></g></g></mask><clipPath
       clipPathUnits="userSpaceOnUse"
       id="clipPath222"><path
         d="M 0,0 124,0 124,48 0,48 0,0 Z"
         id="path224" /></clipPath><clipPath
       clipPathUnits="userSpaceOnUse"
       id="clipPath226"><path
         d="M 0,0 124,0 124,48 0,48 0,0 Z"
         id="path228" /></clipPath><pattern
       patternTransform="matrix(1,0,0,-1,0,48)"
       patternUnits="userSpaceOnUse"
       x="0"
       y="0"
       width="124"
       height="48"
       id="pattern230"><g
         id="g232" /><g
         id="g234"><g
           clip-path="url(#clipPath226)"
           id="g236"><g
             id="g238"><path
               d="m 33.613,22.961 -3.988,-2.266 0.074,-0.074 3.914,2.223 c 0.559,0.316 0.836,0.734 0.836,1.156 -0.047,-0.379 -0.332,-0.75 -0.836,-1.039 z"
               style="fill:#000000;fill-opacity:1;fill-rule:nonzero;stroke:none"
               id="path240" /></g></g></g></pattern><clipPath
       clipPathUnits="userSpaceOnUse"
       id="clipPath254"><path
         d="M 0,0 124,0 124,48 0,48 0,0 Z"
         id="path256" /></clipPath><mask
       maskUnits="userSpaceOnUse"
       x="0"
       y="0"
       width="1"
       height="1"
       id="mask258"><g
         id="g260"><g
           clip-path="url(#clipPath254)"
           id="g262"><path
             d="M 0,0 124,0 124,48 0,48 0,0 Z"
             style="fill:#000000;fill-opacity:0.25;fill-rule:nonzero;stroke:none"
             id="path264" /></g></g></mask><clipPath
       clipPathUnits="userSpaceOnUse"
       id="clipPath270"><path
         d="M 0,0 124,0 124,48 0,48 0,0 Z"
         id="path272" /></clipPath><clipPath
       clipPathUnits="userSpaceOnUse"
       id="clipPath274"><path
         d="M 0,0 124,0 124,48 0,48 0,0 Z"
         id="path276" /></clipPath><pattern
       patternTransform="matrix(1,0,0,-1,0,48)"
       patternUnits="userSpaceOnUse"
       x="0"
       y="0"
       width="124"
       height="48"
       id="pattern278"><g
         id="g280" /><g
         id="g282"><g
           clip-path="url(#clipPath274)"
           id="g284"><g
             id="g286"><path
               d="m 18.012,33.902 15.601,-8.863 c 0.508,-0.289 0.789,-0.66 0.836,-1.039 0,0.418 -0.277,0.836 -0.836,1.156 L 18.012,34.02 c -1.117,0.632 -2.035,0.105 -2.035,-1.176 l 0,-0.114 c 0,1.278 0.918,1.805 2.035,1.172 z"
               style="fill:#ffffff;fill-opacity:1;fill-rule:nonzero;stroke:none"
               id="path288" /></g></g></g></pattern><linearGradient
       gradientTransform="matrix(3.7209,0,0,-3.7209,-3.1248715,1919.4408)"
       y2="454.83591"
       x2="418.129"
       y1="458.401"
       x1="419.2189"
       gradientUnits="userSpaceOnUse"
       id="SVGID_5_"><stop
         id="stop105"
         style="stop-color:#8BA53D"
         offset="0" /><stop
         id="stop107"
         style="stop-color:#94AE45"
         offset="8.484717e-02" /><stop
         id="stop109"
         style="stop-color:#AEC65C"
         offset="0.2259" /><stop
         id="stop111"
         style="stop-color:#D7ED81"
         offset="0.4048" /><stop
         id="stop113"
         style="stop-color:#DCF285"
         offset="0.4246" /></linearGradient><linearGradient
       gradientTransform="matrix(3.7209,0,0,-3.7209,0,1914.4187)"
       y2="454.83578"
       x2="408.75391"
       y1="458.401"
       x1="409.8439"
       gradientUnits="userSpaceOnUse"
       id="SVGID_4_"><stop
         id="stop88"
         style="stop-color:#8BA53D"
         offset="0" /><stop
         id="stop90"
         style="stop-color:#94AE45"
         offset="8.484717e-02" /><stop
         id="stop92"
         style="stop-color:#AEC65C"
         offset="0.2259" /><stop
         id="stop94-3"
         style="stop-color:#D7ED81"
         offset="0.4048" /><stop
         id="stop96-5"
         style="stop-color:#DCF285"
         offset="0.4246" /></linearGradient><linearGradient
       gradientTransform="matrix(3.7209,0,0,-3.7209,-1331.6938,1755.4521)"
       y2="459.40991"
       x2="413.98441"
       y1="453.354"
       x1="413.98441"
       gradientUnits="userSpaceOnUse"
       id="SVGID_3_"><stop
         id="stop73"
         style="stop-color:#BCDB52"
         offset="0" /><stop
         id="stop75"
         style="stop-color:#C5E358"
         offset="0.3206" /><stop
         id="stop77"
         style="stop-color:#CDEA5C"
         offset="0.5" /><stop
         id="stop79"
         style="stop-color:#DCF285"
         offset="0.9944" /></linearGradient><linearGradient
       gradientTransform="matrix(3.7209,0,0,-3.7209,0,1914.4187)"
       y2="452.65521"
       x2="413.98441"
       y1="440.54361"
       x1="413.98441"
       gradientUnits="userSpaceOnUse"
       id="SVGID_1_"><stop
         id="stop39"
         style="stop-color:#2B6099"
         offset="0" /><stop
         id="stop41"
         style="stop-color:#2F69A1"
         offset="0.1299" /><stop
         id="stop43"
         style="stop-color:#3B83B6"
         offset="0.3451" /><stop
         id="stop45"
         style="stop-color:#4699C8"
         offset="0.5" /><stop
         id="stop47"
         style="stop-color:#479ECB"
         offset="0.9944" /></linearGradient><linearGradient
       gradientTransform="matrix(3.7209,0,0,-3.7209,0,1914.4187)"
       y2="452.65521"
       x2="413.98441"
       y1="440.54361"
       x1="413.98441"
       gradientUnits="userSpaceOnUse"
       id="SVGID_2_"><stop
         id="stop52-6"
         style="stop-color:#2B6099"
         offset="0" /><stop
         id="stop54-2"
         style="stop-color:#58A4CD"
         offset="0.5" /><stop
         id="stop56-9"
         style="stop-color:#7FB8D9"
         offset="0.7865" /><stop
         id="stop58-1"
         style="stop-color:#9EC9E2"
         offset="1" /></linearGradient></defs><g
     id="g10845"><path
       id="path14"
       style="opacity:1;fill:#000000;fill-opacity:1;fill-rule:nonzero;stroke:none"
       d="m 144.29398,44.994314 -138.6033857,0 C 2.5621898,44.994314 1.7500006e-8,42.461658 1.7500006e-8,39.369314 l 0,-33.7499974 C 1.7500006e-8,2.5269724 2.5621898,-0.0056843 5.6905943,-0.0056843 l 138.6033857,0 c 3.1284,0 5.6906,2.5326567 5.6906,5.6250009 l 0,33.7499974 c 0,3.092344 -2.5622,5.625 -5.6906,5.625 z" /><path
       id="path16"
       style="opacity:1;fill:#e6e6e6;fill-opacity:1;fill-rule:nonzero;stroke:none"
       d="m 144.29918,0.8957242 c 2.63475,0 4.77869,2.1192178 4.77869,4.7235924 l 0,33.7499974 c 0,2.604375 -2.14394,4.723594 -4.77869,4.723594 l -138.6085857,0 c -2.6347455,0 -4.77867654,-2.119219 -4.77867654,-4.723594 l 0,-33.7499974 c 0,-2.6043746 2.14393104,-4.7235924 4.77867654,-4.7235924 l 138.6085857,0 m 0,-0.9014085 -138.6085857,0 C 2.5621898,-0.0056843 1.7500006e-8,2.5269724 1.7500006e-8,5.6193166 l 0,33.7499974 c 0,3.092344 2.562189782499994,5.625 5.690594282499994,5.625 l 138.6085857,0 c 3.1284,0 5.6906,-2.532656 5.6906,-5.625 l 0,-33.7499974 c 0,-3.0923442 -2.5622,-5.6250009 -5.6906,-5.6250009 z" /><g
       style="opacity:1"
       id="g250"
       transform="matrix(1.4226484,0,0,-1.4062498,-11.381187,56.244313)"><g
         id="g252" /></g><g
       id="g4433"
       transform="translate(0,1.7324861)"><g
         id="text4249"
         style="fill:#ffffff;fill-opacity:1;stroke:#ffffff;stroke-width:0.19514497;stroke-linecap:butt;stroke-linejoin:miter;stroke-miterlimit:4;stroke-dasharray:none;stroke-opacity:1"><path
           id="path4419"
           style="fill:#ffffff;stroke:#ffffff;stroke-width:0.19514497;stroke-miterlimit:4;stroke-dasharray:none;stroke-opacity:1"
           d="m 53.201882,11.519476 q 0,1.419849 -0.842444,2.262294 -0.946566,1.00336 -2.48947,1.00336 -1.476644,0 -2.498935,-1.022292 -1.022292,-1.022292 -1.022292,-2.517867 0,-1.4955747 1.022292,-2.5178665 1.022291,-1.0222918 2.498935,-1.0222918 0.747788,0 1.410384,0.2650386 0.662597,0.2650386 1.088552,0.7477876 L 51.74417,9.3423727 Q 51.431803,8.9637461 50.930123,8.7555015 50.437908,8.5377912 49.869968,8.5377912 q -1.107483,0 -1.874202,0.7667189 -0.757253,0.7761849 -0.757253,1.9404609 0,1.164277 0.757253,1.940462 0.766719,0.766719 1.874202,0.766719 1.012826,0 1.684888,-0.56794 0.672063,-0.56794 0.776185,-1.561835 l -2.461073,0 0,-0.814047 3.284586,0 q 0.04733,0.265038 0.04733,0.511146 z" /><path
           id="path4421"
           style="fill:#ffffff;stroke:#ffffff;stroke-width:0.19514497;stroke-miterlimit:4;stroke-dasharray:none;stroke-opacity:1"
           d="m 58.436614,7.8562633 0,0.8329786 -3.085807,0 0,2.1487061 2.782905,0 0,0.814047 -2.782905,0 0,2.148706 3.085807,0 0,0.832978 -3.956648,0 0,-6.7774157 3.956648,0 z" /><path
           id="path4423"
           style="fill:#ffffff;stroke:#ffffff;stroke-width:0.19514497;stroke-miterlimit:4;stroke-dasharray:none;stroke-opacity:1"
           d="m 62.149148,8.6892419 0,5.9444371 -0.870841,0 0,-5.9444371 -1.893133,0 0,-0.8329786 4.657107,0 0,0.8329786 -1.893133,0 z" /><path
           id="path4425"
           style="fill:#ffffff;stroke:#ffffff;stroke-width:0.19514497;stroke-miterlimit:4;stroke-dasharray:none;stroke-opacity:1"
           d="m 68.342054,14.633679 -0.870841,0 0,-6.7774157 0.870841,0 0,6.7774157 z" /><path
           id="path4427"
           style="fill:#ffffff;stroke:#ffffff;stroke-width:0.19514497;stroke-miterlimit:4;stroke-dasharray:none;stroke-opacity:1"
           d="m 72.237838,8.6892419 0,5.9444371 -0.870841,0 0,-5.9444371 -1.893133,0 0,-0.8329786 4.657107,0 0,0.8329786 -1.893133,0 z" /><path
           id="path4429"
           style="fill:#ffffff;stroke:#ffffff;stroke-width:0.19514497;stroke-miterlimit:4;stroke-dasharray:none;stroke-opacity:1"
           d="m 84.010456,11.244971 q 0,1.505041 -1.00336,2.517867 -1.012826,1.022292 -2.480004,1.022292 -1.476644,0 -2.480004,-1.022292 -1.003361,-1.012826 -1.003361,-2.517867 0,-1.5050403 1.003361,-2.5178665 1.00336,-1.0222918 2.480004,-1.0222918 1.476644,0 2.480004,1.0317575 1.00336,1.0128261 1.00336,2.5084008 z m -6.076956,0 q 0,1.173743 0.738321,1.940462 0.747788,0.766719 1.855271,0.766719 1.107483,0 1.845804,-0.766719 0.747788,-0.757254 0.747788,-1.940462 0,-1.183208 -0.747788,-1.9404609 -0.738321,-0.7667189 -1.845804,-0.7667189 -1.107483,0 -1.855271,0.7667189 Q 77.9335,10.071229 77.9335,11.244971 Z" /><path
           id="path4431"
           style="fill:#ffffff;stroke:#ffffff;stroke-width:0.19514497;stroke-miterlimit:4;stroke-dasharray:none;stroke-opacity:1"
           d="m 86.138233,14.633679 -0.870841,0 0,-6.7774157 1.060154,0 3.294052,5.2723757 0.03786,0 -0.03786,-1.306262 0,-3.9661137 0.870841,0 0,6.7774157 -0.908704,0 -3.445502,-5.5279479 -0.03786,0 0.03786,1.3062619 0,4.221686 z" /></g><g
         transform="matrix(0.39193386,0,0,0.39193386,-578.07154,-73.798384)"
         id="f-droid_2_"
         style="fill:#ffffff"><path
           style="fill:#ffffff"
           d="m 1621.2,236.8 0,3.6 0,1.2 0,5 -0.3,0 -0.6,0 -2.2,0 c -0.7,0 -1,-0.3 -1.2,-1 -0.1,-0.4 -0.2,-1.6 -0.3,-3.4 l -13.5,0 0,11.1 13.2,0 0,5.5 -13.2,0 0,10.1 c 0.9,0.2 1.7,0.3 2.6,0.4 0.9,0.2 1.3,0.7 1.3,1.6 l 0,3 -3.9,0 -7.1,0 -3.9,0 0,-3 c 0,-0.9 0.4,-1.5 1.3,-1.6 0.9,-0.2 1.7,-0.3 2.6,-0.4 l 0,-26.9 c -0.9,-0.2 -1.7,-0.3 -2.6,-0.4 -0.9,-0.2 -1.3,-0.7 -1.3,-1.6 l 0,-3 3.9,0 22.7,0 1.2,0 1.3,-0.2 0,0 z"
           id="path6" /><path
           style="fill:#ffffff"
           d="m 1637.2,256 0,5.4 -13.5,0 0,-5.4 13.5,0 z"
           id="path8" /><path
           style="fill:#ffffff"
           d="m 1676.7,255.6 c 0,5 -1.7,10 -5.3,13.5 -3.7,3.6 -8.8,5.3 -13.9,5.3 l -13.9,0 -3.9,0 0,-3 c 0,-0.9 0.4,-1.5 1.3,-1.6 0.9,-0.2 1.7,-0.3 2.6,-0.4 l 0,-27.4 c -0.9,-0.2 -1.7,-0.3 -2.6,-0.4 -0.9,-0.2 -1.3,-0.7 -1.3,-1.6 l 0,-3 3.9,0 13.9,0 c 5.1,0 10.2,1.6 13.9,5.3 3.7,3.3 5.3,8.4 5.3,13.3 0,2.8 0,-2.7 0,0 z m -7.1,0 c 0,-3.4 -0.8,-6.9 -3.1,-9.5 -2.3,-2.6 -5.6,-3.7 -8.9,-3.7 l -6.8,0 0,26.4 6.8,0 c 3.4,0 6.7,-1.1 8.9,-3.7 2.3,-2.6 3.1,-6.1 3.1,-9.5 z"
           id="path10" /><path
           style="fill:#ffffff"
           d="m 1699.7,248.1 -0.9,4.8 c -0.2,1.1 -1.3,0.9 -2.1,0.7 -1,-0.3 -2.2,-0.3 -3.1,0 -2.2,0.5 -3.7,2.3 -4.5,4.2 l 0,11.4 c 2.3,0.4 2.3,0.4 2.6,0.4 0.9,0.2 1.3,0.7 1.3,1.6 l 0,3 -3.9,0 0,0 -6.5,0 -3.9,0 0,-3 c 0,-0.9 0.4,-1.5 1.3,-1.6 0.4,-0.1 0.4,-0.1 2.6,-0.4 l 0,-16.3 c -2.3,-0.4 -2.3,-0.4 -2.6,-0.4 -0.9,-0.2 -1.3,-0.7 -1.3,-1.6 l 0,-3 3.9,0 0,0 3.8,0 c 1.1,0 1.7,0.4 1.9,1.6 l 0.3,3.2 c 1.1,-1.9 2.6,-3.7 4.7,-4.7 1.9,-1 4.5,-1.1 6.4,0.1 z"
           id="path12" /><path
           style="fill:#ffffff"
           d="m 1719.4,248.3 c 5.7,2.3 8,8 7.8,13.7 -0.3,5.6 -3.4,10.7 -9.1,12.3 -5.4,1.5 -11.9,0 -15.1,-4.9 -3.1,-4.6 -3.2,-11.6 -0.3,-16.4 3.3,-5.4 10.9,-7 16.7,-4.7 1.6,0.6 -1.6,-0.7 0,0 z m -0.5,19.3 c 2,-2.8 2,-7.1 1.2,-10.2 -0.3,-1.5 -1,-2.9 -2.2,-3.9 -1.3,-1 -3,-1.4 -4.6,-1.2 -3.5,0.2 -5.3,2.7 -5.8,5.9 -0.5,3.1 -0.5,7.5 1.8,10 2.5,2.5 7.5,2.3 9.6,-0.6 1.1,-1.4 -1,1.5 0,0 z"
           id="path14-7" /><path
           style="fill:#ffffff"
           d="m 1743.3,271.4 0,3 -3.9,0 -6.5,0 -4,0 0,-3 c 0,-0.9 0.4,-1.5 1.3,-1.6 0.9,-0.2 1.7,-0.3 2.6,-0.4 l 0,-16.4 c -0.9,-0.2 -1.7,-0.3 -2.6,-0.4 -0.9,-0.2 -1.3,-0.7 -1.3,-1.6 l 0,-3 3.9,0 6.5,0 0,21.5 c 0.9,0.2 1.7,0.3 2.6,0.4 1,0 1.4,0.6 1.4,1.5 z m -3.3,-29.8 c -1,2 -3.4,3 -5.4,2.2 -2,-0.9 -3.1,-3.3 -2.2,-5.3 0.9,-2.1 3.3,-3 5.4,-2.2 2.1,0.8 3.2,3.2 2.2,5.3 -0.2,0.4 0.3,-0.6 0,0 z"
           id="path16-5" /><path
           style="fill:#ffffff"
           d="m 1773.4,274.3 -3.7,0 -3.9,0 c -0.8,0 -1.5,-0.3 -1.7,-1.2 l -0.5,-2.4 c -2.4,2.8 -5.9,4.5 -9.8,4.1 -3.8,-0.4 -6.5,-3.2 -7.8,-6.6 -2.4,-6.6 -1.3,-16.3 5.6,-19.8 3.8,-1.9 8.5,-1.5 11.6,1.5 l 0,-8.9 c -0.9,-0.2 -1.7,-0.3 -2.6,-0.4 -0.9,-0.2 -1.3,-0.7 -1.3,-1.6 l 0,-3 3.9,0 6.5,0 0,33.5 c 0.8,0.2 1.6,0.3 2.4,0.4 0.9,0.2 1.3,0.7 1.3,1.6 l 0,2.8 z m -10.1,-19.7 c -1.7,-2 -4.2,-2.9 -6.7,-2.3 -2.5,0.6 -3.9,2.8 -4.4,5.1 -0.5,2.3 -0.5,5 -0.1,7.4 0.4,2.3 1.7,4.4 4.1,4.9 2.9,0.5 5.4,-1 7.2,-3.1 l 0,-12 z"
           id="path18" /></g></g><g
       id="g4428"
       transform="matrix(0.71449457,0,0,0.71449457,9.4982819,45.208399)"><g
         id="g4530"><g
           transform="matrix(-1,0,0,1,44.981174,-1059.7626)"
           id="g4179"><path
             id="path4181"
             d="m 2.5889342,1006.8622 4.25,5.5"
             style="fill:#8ab000;fill-opacity:1;fill-rule:evenodd;stroke:#769616;stroke-width:2.5;stroke-linecap:round;stroke-linejoin:miter;stroke-miterlimit:4;stroke-dasharray:none;stroke-opacity:1" /><path
             style="color:#000000;clip-rule:nonzero;display:inline;overflow:visible;visibility:visible;opacity:1;isolation:auto;mix-blend-mode:normal;color-interpolation:sRGB;color-interpolation-filters:linearRGB;solid-color:#000000;solid-opacity:1;fill:#ffffff;fill-opacity:0.29803922;fill-rule:evenodd;stroke:none;stroke-width:2.5;stroke-linecap:round;stroke-linejoin:miter;stroke-miterlimit:4;stroke-dasharray:none;stroke-dashoffset:0;stroke-opacity:1;color-rendering:auto;image-rendering:auto;shape-rendering:auto;text-rendering:auto;enable-background:accumulate"
             d="m 2.6113281,1005.6094 c -0.4534623,0.012 -0.7616975,0.189 -0.9807462,0.4486 2.0269314,2.4089 2.368401,2.7916 5.1354735,6.2214 1.0195329,1.319 2.0816026,0.6373 1.0620696,-0.6817 l -4.25,-5.5 c -0.2289894,-0.3056 -0.5850813,-0.478 -0.9667969,-0.4883 z"
             id="path4183" /><path
             style="color:#000000;clip-rule:nonzero;display:inline;overflow:visible;visibility:visible;opacity:1;isolation:auto;mix-blend-mode:normal;color-interpolation:sRGB;color-interpolation-filters:linearRGB;solid-color:#000000;solid-opacity:1;fill:#263238;fill-opacity:0.2;fill-rule:evenodd;stroke:none;stroke-width:2.5;stroke-linecap:round;stroke-linejoin:miter;stroke-miterlimit:4;stroke-dasharray:none;stroke-dashoffset:0;stroke-opacity:1;color-rendering:auto;image-rendering:auto;shape-rendering:auto;text-rendering:auto;enable-background:accumulate"
             d="m 1.6220992,1006.0705 c -0.1238933,0.1479 -0.561176,0.8046 -0.02249,1.5562 l 4.25,5.5 c 1.0195329,1.319 1.1498748,-0.6123 1.1498748,-0.6123 0,0 -3.7344514,-4.51 -5.3773848,-6.4439 z"
             id="path4185" /><path
             style="color:#000000;clip-rule:nonzero;display:inline;overflow:visible;visibility:visible;opacity:1;isolation:auto;mix-blend-mode:normal;color-interpolation:sRGB;color-interpolation-filters:linearRGB;solid-color:#000000;solid-opacity:1;fill:#8ab000;fill-opacity:1;fill-rule:evenodd;stroke:none;stroke-width:2.5;stroke-linecap:round;stroke-linejoin:miter;stroke-miterlimit:4;stroke-dasharray:none;stroke-dashoffset:0;stroke-opacity:1;color-rendering:auto;image-rendering:auto;shape-rendering:auto;text-rendering:auto;enable-background:accumulate"
             d="m 2.3378905,1005.8443 c -0.438175,0 -0.959862,0.1416 -0.8242183,0.7986 0.103561,0.5016 4.6608262,6.0744 4.6608262,6.0744 1.0195329,1.319 2.4934721,0.6763 1.4739391,-0.6425 l -4.234375,-5.4727 c -0.2602394,-0.29 -0.6085188,-0.7436 -1.076172,-0.7578 z"
             id="path4187" /></g><g
           id="g4955"
           transform="translate(-3.0186091,-1059.7626)"><path
             style="fill:#8ab000;fill-opacity:1;fill-rule:evenodd;stroke:#769616;stroke-width:2.5;stroke-linecap:round;stroke-linejoin:miter;stroke-miterlimit:4;stroke-dasharray:none;stroke-opacity:1"
             d="m 2.5889342,1006.8622 4.25,5.5"
             id="path4945" /><path
             id="path4947"
             d="m 2.6113281,1005.6094 c -0.4534623,0.012 -0.7616975,0.189 -0.9807462,0.4486 2.0269314,2.4089 2.368401,2.7916 5.1354735,6.2214 1.0195329,1.319 2.0816026,0.6373 1.0620696,-0.6817 l -4.25,-5.5 c -0.2289894,-0.3056 -0.5850813,-0.478 -0.9667969,-0.4883 z"
             style="color:#000000;clip-rule:nonzero;display:inline;overflow:visible;visibility:visible;opacity:1;isolation:auto;mix-blend-mode:normal;color-interpolation:sRGB;color-interpolation-filters:linearRGB;solid-color:#000000;solid-opacity:1;fill:#ffffff;fill-opacity:0.29803922;fill-rule:evenodd;stroke:none;stroke-width:2.5;stroke-linecap:round;stroke-linejoin:miter;stroke-miterlimit:4;stroke-dasharray:none;stroke-dashoffset:0;stroke-opacity:1;color-rendering:auto;image-rendering:auto;shape-rendering:auto;text-rendering:auto;enable-background:accumulate" /><path
             id="path4951"
             d="m 1.6220992,1006.0705 c -0.1238933,0.1479 -0.561176,0.8046 -0.02249,1.5562 l 4.25,5.5 c 1.0195329,1.319 1.1498748,-0.6123 1.1498748,-0.6123 0,0 -3.7344514,-4.51 -5.3773848,-6.4439 z"
             style="color:#000000;clip-rule:nonzero;display:inline;overflow:visible;visibility:visible;opacity:1;isolation:auto;mix-blend-mode:normal;color-interpolation:sRGB;color-interpolation-filters:linearRGB;solid-color:#000000;solid-opacity:1;fill:#263238;fill-opacity:0.2;fill-rule:evenodd;stroke:none;stroke-width:2.5;stroke-linecap:round;stroke-linejoin:miter;stroke-miterlimit:4;stroke-dasharray:none;stroke-dashoffset:0;stroke-opacity:1;color-rendering:auto;image-rendering:auto;shape-rendering:auto;text-rendering:auto;enable-background:accumulate" /><path
             id="path4925"
             d="m 2.3378905,1005.8443 c -0.438175,0 -0.959862,0.1416 -0.8242183,0.7986 0.103561,0.5016 4.6608262,6.0744 4.6608262,6.0744 1.0195329,1.319 2.4934721,0.6763 1.4739391,-0.6425 l -4.234375,-5.4727 c -0.2602394,-0.29 -0.6085188,-0.7436 -1.076172,-0.7578 z"
             style="color:#000000;clip-rule:nonzero;display:inline;overflow:visible;visibility:visible;opacity:1;isolation:auto;mix-blend-mode:normal;color-interpolation:sRGB;color-interpolation-filters:linearRGB;solid-color:#000000;solid-opacity:1;fill:#8ab000;fill-opacity:1;fill-rule:evenodd;stroke:none;stroke-width:2.5;stroke-linecap:round;stroke-linejoin:miter;stroke-miterlimit:4;stroke-dasharray:none;stroke-dashoffset:0;stroke-opacity:1;color-rendering:auto;image-rendering:auto;shape-rendering:auto;text-rendering:auto;enable-background:accumulate" /></g><g
           id="g4967"
           transform="translate(38.981394,-1059.7626)"><path
             style="opacity:1;fill:#aeea00;fill-opacity:1;stroke:none;stroke-width:3;stroke-linecap:round;stroke-linejoin:miter;stroke-miterlimit:3;stroke-dasharray:none;stroke-dashoffset:0;stroke-opacity:1"
             d="m -34,1010.3622 32,0 c 1.662,0 3,1.338 3,3 l 0,7 c 0,1.662 -1.338,3 -3,3 l -32,0 c -1.662,0 -3,-1.338 -3,-3 l 0,-7 c 0,-1.662 1.338,-3 3,-3 z"
             id="rect4144" /><path
             style="opacity:1;fill:#263238;fill-opacity:0.2;stroke:none;stroke-width:3;stroke-linecap:round;stroke-linejoin:miter;stroke-miterlimit:3;stroke-dasharray:none;stroke-dashoffset:0;stroke-opacity:1"
             d="m -34,1013.3622 32,0 c 1.662,0 3,1.338 3,3 l 0,4 c 0,1.662 -1.338,3 -3,3 l -32,0 c -1.662,0 -3,-1.338 -3,-3 l 0,-4 c 0,-1.662 1.338,-3 3,-3 z"
             id="rect4961" /><path
             style="opacity:1;fill:#ffffff;fill-opacity:0.29803922;stroke:none;stroke-width:3;stroke-linecap:round;stroke-linejoin:miter;stroke-miterlimit:3;stroke-dasharray:none;stroke-dashoffset:0;stroke-opacity:1"
             d="m -34,1010.3622 32,0 c 1.662,0 3,1.338 3,3 l 0,4 c 0,1.662 -1.338,3 -3,3 l -32,0 c -1.662,0 -3,-1.338 -3,-3 l 0,-4 c 0,-1.662 1.338,-3 3,-3 z"
             id="rect4963" /><path
             style="opacity:1;fill:#aeea00;fill-opacity:1;stroke:none;stroke-width:3;stroke-linecap:round;stroke-linejoin:miter;stroke-miterlimit:3;stroke-dasharray:none;stroke-dashoffset:0;stroke-opacity:1"
             d="m -34,1011.3622 32,0 c 1.662,0 3,1.1321 3,2.5384 l 0,5.9231 c 0,1.4063 -1.338,2.5385 -3,2.5385 l -32,0 c -1.662,0 -3,-1.1322 -3,-2.5385 l 0,-5.9231 c 0,-1.4063 1.338,-2.5384 3,-2.5384 z"
             id="rect4965" /></g><g
           id="g4979"
           transform="translate(-3.0186091,-1059.7626)"><path
             style="opacity:1;fill:#1976d2;fill-opacity:1;stroke:none;stroke-width:3;stroke-linecap:round;stroke-linejoin:miter;stroke-miterlimit:3;stroke-dasharray:none;stroke-dashoffset:0;stroke-opacity:1"
             d="m 8,1024.3622 32,0 c 1.662,0 3,1.338 3,3 l 0,20 c 0,1.662 -1.338,3 -3,3 l -32,0 c -1.662,0 -3,-1.338 -3,-3 l 0,-20 c 0,-1.662 1.338,-3 3,-3 z"
             id="rect4146" /><path
             style="opacity:1;fill:#263238;fill-opacity:0.2;stroke:none;stroke-width:3;stroke-linecap:round;stroke-linejoin:miter;stroke-miterlimit:3;stroke-dasharray:none;stroke-dashoffset:0;stroke-opacity:1"
             d="m 8,1037.3622 32,0 c 1.662,0 3,1.338 3,3 l 0,7 c 0,1.662 -1.338,3 -3,3 l -32,0 c -1.662,0 -3,-1.338 -3,-3 l 0,-7 c 0,-1.662 1.338,-3 3,-3 z"
             id="rect4973" /><path
             style="opacity:1;fill:#ffffff;fill-opacity:0.2;stroke:none;stroke-width:3;stroke-linecap:round;stroke-linejoin:miter;stroke-miterlimit:3;stroke-dasharray:none;stroke-dashoffset:0;stroke-opacity:1"
             d="m 8,1024.3622 32,0 c 1.662,0 3,1.338 3,3 l 0,7 c 0,1.662 -1.338,3 -3,3 l -32,0 c -1.662,0 -3,-1.338 -3,-3 l 0,-7 c 0,-1.662 1.338,-3 3,-3 z"
             id="rect4975" /><path
             style="opacity:1;fill:#1976d2;fill-opacity:1;stroke:none;stroke-width:3;stroke-linecap:round;stroke-linejoin:miter;stroke-miterlimit:3;stroke-dasharray:none;stroke-dashoffset:0;stroke-opacity:1"
             d="m 8,1025.3622 32,0 c 1.662,0 3,1.2351 3,2.7692 l 0,18.4616 c 0,1.5341 -1.338,2.7692 -3,2.7692 l -32,0 c -1.662,0 -3,-1.2351 -3,-2.7692 l 0,-18.4616 c 0,-1.5341 1.338,-2.7692 3,-2.7692 z"
             id="rect4977" /></g><g
           id="g4211"
           transform="translate(-3.0186091,-46.400478)"><path
             id="path4161"
             d="m 24,17.75 c -2.880662,0 -5.319789,1.984685 -6.033203,4.650391 l 3.212891,0 C 21.734004,21.415044 22.774798,20.75 24,20.75 c 1.812692,0 3.25,1.437308 3.25,3.25 0,1.812693 -1.437308,3.25 -3.25,3.25 -1.307381,0 -2.411251,-0.75269 -2.929688,-1.849609 l -3.154296,0 C 18.558263,28.166146 21.04791,30.25 24,30.25 c 3.434013,0 6.25,-2.815987 6.25,-6.25 0,-3.434012 -2.815987,-6.25 -6.25,-6.25 z"
             style="color:#000000;clip-rule:nonzero;display:inline;overflow:visible;visibility:visible;opacity:1;isolation:auto;mix-blend-mode:normal;color-interpolation:sRGB;color-interpolation-filters:linearRGB;solid-color:#000000;solid-opacity:1;fill:#0d47a1;fill-opacity:1;fill-rule:nonzero;stroke:none;stroke-width:3;stroke-linecap:round;stroke-linejoin:miter;stroke-miterlimit:4;stroke-dasharray:none;stroke-dashoffset:0;stroke-opacity:1;color-rendering:auto;image-rendering:auto;shape-rendering:auto;text-rendering:auto;enable-background:accumulate" /><path
             style="opacity:1;fill:none;fill-opacity:0.40392157;stroke:#0d47a1;stroke-width:1.89999998;stroke-linecap:round;stroke-linejoin:miter;stroke-miterlimit:4;stroke-dasharray:none;stroke-dashoffset:0;stroke-opacity:1"
             d="M 33.55,24 A 9.5500002,9.5500002 0 0 1 24,33.55 9.5500002,9.5500002 0 0 1 14.45,24 9.5500002,9.5500002 0 0 1 24,14.45 9.5500002,9.5500002 0 0 1 33.55,24 Z"
             id="path4209" /></g><g
           transform="translate(-3.0186091,-1059.2626)"
           id="g4989"><path
             style="opacity:1;fill:#263238;fill-opacity:0.2;stroke:none;stroke-width:1.89999998;stroke-linecap:round;stroke-linejoin:miter;stroke-miterlimit:4;stroke-dasharray:none;stroke-dashoffset:0;stroke-opacity:0.69721117"
             d="m 17.75,1016.4872 a 3.375,3.875 0 0 1 -3.375,3.875 3.375,3.875 0 0 1 -3.375,-3.875 3.375,3.875 0 0 1 3.375,-3.875 3.375,3.875 0 0 1 3.375,3.875 z"
             id="circle4985" /><path
             style="opacity:1;fill:#ffffff;fill-opacity:1;stroke:none;stroke-width:1.89999998;stroke-linecap:round;stroke-linejoin:miter;stroke-miterlimit:4;stroke-dasharray:none;stroke-dashoffset:0;stroke-opacity:0.69721117"
             d="m 17.75,1016.9872 a 3.375,3.375 0 0 1 -3.375,3.375 3.375,3.375 0 0 1 -3.375,-3.375 3.375,3.375 0 0 1 3.375,-3.375 3.375,3.375 0 0 1 3.375,3.375 z"
             id="path4859" /></g><g
           id="g4171"
           transform="translate(16.481391,-1059.2626)"><path
             style="opacity:1;fill:#263238;fill-opacity:0.2;stroke:none;stroke-width:1.89999998;stroke-linecap:round;stroke-linejoin:miter;stroke-miterlimit:4;stroke-dasharray:none;stroke-dashoffset:0;stroke-opacity:0.69721117"
             d="m 17.75,1016.4872 a 3.375,3.875 0 0 1 -3.375,3.875 3.375,3.875 0 0 1 -3.375,-3.875 3.375,3.875 0 0 1 3.375,-3.875 3.375,3.875 0 0 1 3.375,3.875 z"
             id="ellipse4175" /><path
             style="opacity:1;fill:#ffffff;fill-opacity:1;stroke:none;stroke-width:1.89999998;stroke-linecap:round;stroke-linejoin:miter;stroke-miterlimit:4;stroke-dasharray:none;stroke-dashoffset:0;stroke-opacity:0.69721117"
             d="m 17.75,1016.9872 a 3.375,3.375 0 0 1 -3.375,3.375 3.375,3.375 0 0 1 -3.375,-3.375 3.375,3.375 0 0 1 3.375,-3.375 3.375,3.375 0 0 1 3.375,3.375 z"
             id="circle4177" /></g></g></g></g></svg>
