<?xml version="1.0" encoding="UTF-8" standalone="no"?>
<svg
   xmlns:dc="http://purl.org/dc/elements/1.1/"
   xmlns:cc="http://creativecommons.org/ns#"
   xmlns:rdf="http://www.w3.org/1999/02/22-rdf-syntax-ns#"
   xmlns:svg="http://www.w3.org/2000/svg"
   xmlns="http://www.w3.org/2000/svg"
   id="svg2"
   version="1.1"
   xml:space="preserve"
   width="150"
   height="45"
   viewBox="0 0 150 45"><metadata
     id="metadata8"><rdf:RDF><cc:Work
         rdf:about=""><dc:format>image/svg+xml</dc:format><dc:type
           rdf:resource="http://purl.org/dc/dcmitype/StillImage" /><dc:title></dc:title></cc:Work></rdf:RDF></metadata><defs
     id="defs6"><linearGradient
       x1="31.7997"
       y1="183.2903"
       x2="15.0173"
       y2="166.5079"
       gradientUnits="userSpaceOnUse"
       gradientTransform="matrix(0.8,0,0,-0.8,0,161.6)"
       spreadMethod="pad"
       id="linearGradient50"><stop
         style="stop-opacity:1;stop-color:#00a0ff"
         offset="0"
         id="stop52" /><stop
         style="stop-opacity:1;stop-color:#00a1ff"
         offset="0.0066"
         id="stop54" /><stop
         style="stop-opacity:1;stop-color:#00beff"
         offset="0.2601"
         id="stop56" /><stop
         style="stop-opacity:1;stop-color:#00d2ff"
         offset="0.5122"
         id="stop58" /><stop
         style="stop-opacity:1;stop-color:#00dfff"
         offset="0.7604"
         id="stop60" /><stop
         style="stop-opacity:1;stop-color:#00e3ff"
         offset="1"
         id="stop62" /></linearGradient><linearGradient
       x1="43.8344"
       y1="171.9986"
       x2="19.637501"
       y2="171.9986"
       gradientUnits="userSpaceOnUse"
       gradientTransform="matrix(0.8,0,0,-0.8,0,161.6)"
       spreadMethod="pad"
       id="linearGradient68"><stop
         style="stop-opacity:1;stop-color:#ffe000"
         offset="0"
         id="stop70" /><stop
         style="stop-opacity:1;stop-color:#ffbd00"
         offset="0.4087"
         id="stop72" /><stop
         style="stop-opacity:1;stop-color:#ffa500"
         offset="0.7754"
         id="stop74" /><stop
         style="stop-opacity:1;stop-color:#ff9c00"
         offset="1"
         id="stop76" /></linearGradient><linearGradient
       x1="34.827"
       y1="169.7039"
       x2="12.0687"
       y2="146.9456"
       gradientUnits="userSpaceOnUse"
       gradientTransform="matrix(0.8,0,0,-0.8,0,161.6)"
       spreadMethod="pad"
       id="linearGradient82"><stop
         style="stop-opacity:1;stop-color:#ff3a44"
         offset="0"
         id="stop84" /><stop
         style="stop-opacity:1;stop-color:#c31162"
         offset="1"
         id="stop86" /></linearGradient><linearGradient
       x1="17.2973"
       y1="191.82381"
       x2="27.4599"
       y2="181.6613"
       gradientUnits="userSpaceOnUse"
       gradientTransform="matrix(0.8,0,0,-0.8,0,161.6)"
       spreadMethod="pad"
       id="linearGradient92"><stop
         style="stop-opacity:1;stop-color:#32a071"
         offset="0"
         id="stop94" /><stop
         style="stop-opacity:1;stop-color:#2da771"
         offset="0.0685"
         id="stop96" /><stop
         style="stop-opacity:1;stop-color:#15cf74"
         offset="0.4762"
         id="stop98" /><stop
         style="stop-opacity:1;stop-color:#06e775"
         offset="0.8009"
         id="stop100" /><stop
         style="stop-opacity:1;stop-color:#00f076"
         offset="1"
         id="stop102" /></linearGradient><clipPath
       clipPathUnits="userSpaceOnUse"
       id="clipPath110"><path
         d="M 0,0 124,0 124,48 0,48 0,0 Z"
         id="path112" /></clipPath><mask
       maskUnits="userSpaceOnUse"
       x="0"
       y="0"
       width="1"
       height="1"
       id="mask114"><g
         id="g116"><g
           clip-path="url(#clipPath110)"
           id="g118"><path
             d="M 0,0 124,0 124,48 0,48 0,0 Z"
             style="fill:#000000;fill-opacity:0.2;fill-rule:nonzero;stroke:none"
             id="path120" /></g></g></mask><clipPath
       clipPathUnits="userSpaceOnUse"
       id="clipPath126"><path
         d="M 0,0 124,0 124,48 0,48 0,0 Z"
         id="path128" /></clipPath><clipPath
       clipPathUnits="userSpaceOnUse"
       id="clipPath130"><path
         d="M 0,0 124,0 124,48 0,48 0,0 Z"
         id="path132" /></clipPath><pattern
       patternTransform="matrix(1,0,0,-1,0,48)"
       patternUnits="userSpaceOnUse"
       x="0"
       y="0"
       width="124"
       height="48"
       id="pattern134"><g
         id="g136" /><g
         id="g138"><g
           clip-path="url(#clipPath130)"
           id="g140"><g
             id="g142"><path
               d="M 29.625,20.695 18.012,14.098 C 17.363,13.727 16.781,13.754 16.406,14.09 l -0.058,-0.063 0.058,-0.058 c 0.375,-0.336 0.957,-0.36 1.606,0.011 l 11.687,6.641 -0.074,0.074 z"
               style="fill:#000000;fill-opacity:1;fill-rule:nonzero;stroke:none"
               id="path144" /></g></g></g></pattern><clipPath
       clipPathUnits="userSpaceOnUse"
       id="clipPath158"><path
         d="M 0,0 124,0 124,48 0,48 0,0 Z"
         id="path160" /></clipPath><mask
       maskUnits="userSpaceOnUse"
       x="0"
       y="0"
       width="1"
       height="1"
       id="mask162"><g
         id="g164"><g
           clip-path="url(#clipPath158)"
           id="g166"><path
             d="M 0,0 124,0 124,48 0,48 0,0 Z"
             style="fill:#000000;fill-opacity:0.12000002;fill-rule:nonzero;stroke:none"
             id="path168" /></g></g></mask><clipPath
       clipPathUnits="userSpaceOnUse"
       id="clipPath174"><path
         d="M 0,0 124,0 124,48 0,48 0,0 Z"
         id="path176" /></clipPath><clipPath
       clipPathUnits="userSpaceOnUse"
       id="clipPath178"><path
         d="M 0,0 124,0 124,48 0,48 0,0 Z"
         id="path180" /></clipPath><pattern
       patternTransform="matrix(1,0,0,-1,0,48)"
       patternUnits="userSpaceOnUse"
       x="0"
       y="0"
       width="124"
       height="48"
       id="pattern182"><g
         id="g184" /><g
         id="g186"><g
           clip-path="url(#clipPath178)"
           id="g188"><g
             id="g190"><path
               d="m 16.348,14.145 c -0.235,0.246 -0.371,0.628 -0.371,1.125 l 0,-0.118 c 0,-0.496 0.136,-0.879 0.371,-1.125 l 0.058,0.063 -0.058,0.055 z"
               style="fill:#000000;fill-opacity:1;fill-rule:nonzero;stroke:none"
               id="path192" /></g></g></g></pattern><clipPath
       clipPathUnits="userSpaceOnUse"
       id="clipPath206"><path
         d="M 0,0 124,0 124,48 0,48 0,0 Z"
         id="path208" /></clipPath><mask
       maskUnits="userSpaceOnUse"
       x="0"
       y="0"
       width="1"
       height="1"
       id="mask210"><g
         id="g212"><g
           clip-path="url(#clipPath206)"
           id="g214"><path
             d="M 0,0 124,0 124,48 0,48 0,0 Z"
             style="fill:#000000;fill-opacity:0.12000002;fill-rule:nonzero;stroke:none"
             id="path216" /></g></g></mask><clipPath
       clipPathUnits="userSpaceOnUse"
       id="clipPath222"><path
         d="M 0,0 124,0 124,48 0,48 0,0 Z"
         id="path224" /></clipPath><clipPath
       clipPathUnits="userSpaceOnUse"
       id="clipPath226"><path
         d="M 0,0 124,0 124,48 0,48 0,0 Z"
         id="path228" /></clipPath><pattern
       patternTransform="matrix(1,0,0,-1,0,48)"
       patternUnits="userSpaceOnUse"
       x="0"
       y="0"
       width="124"
       height="48"
       id="pattern230"><g
         id="g232" /><g
         id="g234"><g
           clip-path="url(#clipPath226)"
           id="g236"><g
             id="g238"><path
               d="m 33.613,22.961 -3.988,-2.266 0.074,-0.074 3.914,2.223 c 0.559,0.316 0.836,0.734 0.836,1.156 -0.047,-0.379 -0.332,-0.75 -0.836,-1.039 z"
               style="fill:#000000;fill-opacity:1;fill-rule:nonzero;stroke:none"
               id="path240" /></g></g></g></pattern><clipPath
       clipPathUnits="userSpaceOnUse"
       id="clipPath254"><path
         d="M 0,0 124,0 124,48 0,48 0,0 Z"
         id="path256" /></clipPath><mask
       maskUnits="userSpaceOnUse"
       x="0"
       y="0"
       width="1"
       height="1"
       id="mask258"><g
         id="g260"><g
           clip-path="url(#clipPath254)"
           id="g262"><path
             d="M 0,0 124,0 124,48 0,48 0,0 Z"
             style="fill:#000000;fill-opacity:0.25;fill-rule:nonzero;stroke:none"
             id="path264" /></g></g></mask><clipPath
       clipPathUnits="userSpaceOnUse"
       id="clipPath270"><path
         d="M 0,0 124,0 124,48 0,48 0,0 Z"
         id="path272" /></clipPath><clipPath
       clipPathUnits="userSpaceOnUse"
       id="clipPath274"><path
         d="M 0,0 124,0 124,48 0,48 0,0 Z"
         id="path276" /></clipPath><pattern
       patternTransform="matrix(1,0,0,-1,0,48)"
       patternUnits="userSpaceOnUse"
       x="0"
       y="0"
       width="124"
       height="48"
       id="pattern278"><g
         id="g280" /><g
         id="g282"><g
           clip-path="url(#clipPath274)"
           id="g284"><g
             id="g286"><path
               d="m 18.012,33.902 15.601,-8.863 c 0.508,-0.289 0.789,-0.66 0.836,-1.039 0,0.418 -0.277,0.836 -0.836,1.156 L 18.012,34.02 c -1.117,0.632 -2.035,0.105 -2.035,-1.176 l 0,-0.114 c 0,1.278 0.918,1.805 2.035,1.172 z"
               style="fill:#ffffff;fill-opacity:1;fill-rule:nonzero;stroke:none"
               id="path288" /></g></g></g></pattern></defs><g
     id="g10775"><path
       id="path14"
       style="opacity:1;fill:#000000;fill-opacity:1;fill-rule:nonzero;stroke:none"
       d="m 144.29398,44.994314 -138.6033857,0 C 2.5621898,44.994314 1.7500006e-8,42.461658 1.7500006e-8,39.369314 l 0,-33.7499974 C 1.7500006e-8,2.5269724 2.5621898,-0.0056843 5.6905943,-0.0056843 l 138.6033857,0 c 3.1284,0 5.6906,2.5326567 5.6906,5.6250009 l 0,33.7499974 c 0,3.092344 -2.5622,5.625 -5.6906,5.625 z" /><path
       id="path16"
       style="opacity:1;fill:#e6e6e6;fill-opacity:1;fill-rule:nonzero;stroke:none"
       d="m 144.29918,0.8957242 c 2.63475,0 4.77869,2.1192178 4.77869,4.7235924 l 0,33.7499974 c 0,2.604375 -2.14394,4.723594 -4.77869,4.723594 l -138.6085857,0 c -2.6347455,0 -4.77867654,-2.119219 -4.77867654,-4.723594 l 0,-33.7499974 c 0,-2.6043746 2.14393104,-4.7235924 4.77867654,-4.7235924 l 138.6085857,0 m 0,-0.9014085 -138.6085857,0 C 2.5621898,-0.0056843 1.7500006e-8,2.5269724 1.7500006e-8,5.6193166 l 0,33.7499974 c 0,3.092344 2.562189782499994,5.625 5.690594282499994,5.625 l 138.6085857,0 c 3.1284,0 5.6906,-2.532656 5.6906,-5.625 l 0,-33.7499974 c 0,-3.0923442 -2.5622,-5.6250009 -5.6906,-5.6250009 z" /><g
       style="opacity:1"
       id="g5049"
       transform="matrix(1.4192532,0,0,-1.4194083,-10.960168,56.244313)"><g
         transform="matrix(1.0023923,0,0,0.99072975,-0.29664807,0)"
         id="g48"><path
           d="M 16.348,33.969 C 16.113,33.723 15.977,33.34 15.977,32.844 l 0,-17.692 c 0,-0.496 0.136,-0.879 0.371,-1.125 l 0.058,-0.054 9.914,9.91 0,0.234 -9.914,9.91 -0.058,-0.058 z"
           style="fill:url(#linearGradient50);fill-opacity:1;fill-rule:nonzero;stroke:none"
           id="path64" /></g><g
         transform="matrix(1.0023923,0,0,0.99072975,-0.29664807,0)"
         id="g66"><path
           d="m 29.621,20.578 -3.301,3.305 0,0.234 3.305,3.305 0.074,-0.043 3.914,-2.227 c 1.117,-0.632 1.117,-1.672 0,-2.308 l -3.914,-2.223 -0.078,-0.043 z"
           style="fill:url(#linearGradient68);fill-opacity:1;fill-rule:nonzero;stroke:none"
           id="path78" /></g><g
         transform="matrix(1.0023923,0,0,0.99072975,-0.29664807,0)"
         id="g80"><path
           d="M 29.699,20.621 26.32,24 16.348,14.027 c 0.371,-0.39 0.976,-0.437 1.664,-0.047 l 11.687,6.641"
           style="fill:url(#linearGradient82);fill-opacity:1;fill-rule:nonzero;stroke:none"
           id="path88" /></g><g
         transform="matrix(1.0023923,0,0,0.99072975,-0.29664807,0)"
         id="g90"><path
           d="M 29.699,27.379 18.012,34.02 c -0.688,0.386 -1.293,0.339 -1.664,-0.051 L 26.32,24 l 3.379,3.379 z"
           style="fill:url(#linearGradient92);fill-opacity:1;fill-rule:nonzero;stroke:none"
           id="path104" /></g></g><g
       style="opacity:1"
       id="g250"
       transform="matrix(1.4226484,0,0,-1.4062498,-11.381187,56.244313)"><g
         id="g252" /></g><g
       id="g4433"><path
         d="m 76.795721,24.465878 c -2.673154,0 -4.856919,2.010939 -4.856919,4.785468 0,2.752032 2.183765,4.784063 4.856919,4.784063 2.678848,0 4.862613,-2.032031 4.862613,-4.784063 0,-2.774529 -2.183765,-4.785468 -4.862613,-4.785468 z m 0,7.685156 c -1.46675,0 -2.728639,-1.196718 -2.728639,-2.899688 0,-1.725468 1.261889,-2.901093 2.728639,-2.901093 1.466751,0 2.734331,1.175625 2.734331,2.901093 0,1.70297 -1.26758,2.899688 -2.734331,2.899688 z M 66.198414,24.465878 c -2.678845,0 -4.85692,2.010939 -4.85692,4.785468 0,2.752032 2.178075,4.784063 4.85692,4.784063 2.677426,0 4.856922,-2.032031 4.856922,-4.784063 0,-2.774529 -2.179496,-4.785468 -4.856922,-4.785468 z m 0,7.685156 c -1.468173,0 -2.73433,-1.196718 -2.73433,-2.899688 0,-1.725468 1.266157,-2.901093 2.73433,-2.901093 1.466752,0 2.728641,1.175625 2.728641,2.901093 0,1.70297 -1.261889,2.899688 -2.728641,2.899688 z m -12.610355,-6.218437 0,2.033437 4.912406,0 c -0.143689,1.136251 -0.527804,1.971563 -1.11678,2.553751 -0.717016,0.703125 -1.833794,1.483593 -3.795626,1.483593 -3.023127,0 -5.390415,-2.411719 -5.390415,-5.4 0,-2.98828 2.367288,-5.400001 5.390415,-5.400001 1.634622,0 2.823957,0.631409 3.701731,1.449846 l 1.44968,-1.432969 c -1.227748,-1.15875 -2.860948,-2.048907 -5.151411,-2.048907 -4.145598,0 -7.629664,3.334218 -7.629664,7.432031 0,4.097814 3.484066,7.432031 7.629664,7.432031 2.240671,0 3.923663,-0.725624 5.246726,-2.086874 1.355785,-1.340156 1.778311,-3.224532 1.778311,-4.746094 0,-0.472499 -0.03984,-0.907032 -0.110962,-1.269844 l -6.914072,0 z m 51.565311,1.576405 c -0.39977,-1.070155 -1.6332,-3.043124 -4.1456,-3.043124 -2.48963,0 -4.562429,1.939218 -4.562429,4.785468 0,2.680313 2.05146,4.784063 4.801439,4.784063 2.22359,0 3.50682,-1.340155 4.03463,-2.120623 l -1.65028,-1.087034 c -0.55056,0.79594 -1.3003,1.323282 -2.38435,1.323282 -1.07695,0 -1.849443,-0.487969 -2.344524,-1.449842 l 6.474464,-2.647969 -0.22335,-0.544221 z m -6.601086,1.593283 c -0.05548,-1.844999 1.449676,-2.790001 2.528046,-2.790001 0.84505,0 1.56206,0.417658 1.80107,1.015314 l -4.329116,1.774687 z m -5.262378,4.642029 2.128283,0 0,-14.062499 -2.128283,0 0,14.062499 z m -3.485489,-8.212498 -0.07112,0 c -0.478007,-0.559688 -1.389926,-1.065938 -2.545116,-1.065938 -2.424192,0 -4.64068,2.103751 -4.64068,4.800937 0,2.68172 2.216488,4.768594 4.64068,4.768594 1.15519,0 2.067109,-0.510468 2.545116,-1.087031 l 0.07112,0 0,0.68625 c 0,1.829531 -0.98874,2.812501 -2.583527,2.812501 -1.300301,0 -2.106943,-0.928126 -2.439843,-1.708595 l -1.850866,0.763594 c 0.533494,1.268437 1.946183,2.829373 4.290709,2.829373 2.495325,0 4.600844,-1.451248 4.600844,-4.982341 l 0,-8.592188 -2.017317,0 0,0.774844 z m -2.43415,6.619218 c -1.466751,0 -2.694496,-1.213594 -2.694496,-2.884219 0,-1.686091 1.227745,-2.916562 2.694496,-2.916562 1.44541,0 2.584954,1.230471 2.584954,2.916562 0,1.670625 -1.139544,2.884219 -2.584954,2.884219 z m 27.747333,-12.469219 -5.09024,0 0,14.062499 2.12259,0 0,-5.32828 2.96765,0 c 2.35732,0 4.66913,-1.686092 4.66913,-4.367813 0,-2.680311 -2.31749,-4.366407 -4.66913,-4.366407 z m 0.0555,6.778126 -3.02313,0 0,-4.822032 3.02313,0 c 1.58483,0 2.48964,1.300782 2.48964,2.410312 0,1.088438 -0.90481,2.41172 -2.48964,2.41172 z m 13.12109,-2.020782 c -1.53362,0 -3.12842,0.669376 -3.78425,2.152969 l 1.8836,0.78047 c 0.40543,-0.78047 1.15091,-1.033594 1.93906,-1.033594 1.10112,0 2.21791,0.653904 2.23497,1.808436 l 0,0.147657 c -0.38411,-0.219374 -1.20638,-0.544217 -2.2179,-0.544217 -2.0287,0 -4.0958,1.103905 -4.0958,3.164062 0,1.884374 1.66165,3.097967 3.52958,3.097967 1.42835,0 2.21649,-0.637031 2.71157,-1.378124 l 0.0726,0 0,1.08703 2.05005,0 0,-5.394375 c 0,-2.49328 -1.8836,-3.888281 -4.32345,-3.888281 z m -0.25608,7.706251 c -0.69425,0 -1.66166,-0.340314 -1.66166,-1.191094 0,-1.088439 1.20641,-1.506093 2.25064,-1.506093 0.93467,0 1.37285,0.203904 1.94048,0.472499 -0.16643,1.302188 -1.30028,2.224688 -2.52946,2.224688 z m 12.04841,-7.398282 -2.43983,6.096095 -0.0726,0 -2.52232,-6.096095 -2.28905,0 3.78995,8.519063 -2.16244,4.740467 2.21791,0 5.83998,-13.25953 -2.36162,0 z m -19.1332,8.997186 2.12828,0 0,-14.062499 -2.12828,0 0,14.062499 z"
         style="opacity:1;fill:#ffffff;fill-opacity:1;fill-rule:nonzero;stroke:none"
         id="path46" /><g
         id="text4249"
         style="font-style:normal;font-variant:normal;font-weight:bold;font-stretch:normal;font-size:9.46566486px;line-height:125%;font-family:Poppins;-inkscape-font-specification:'Poppins, Bold';text-align:start;letter-spacing:0px;word-spacing:0px;writing-mode:lr-tb;text-anchor:start;fill:#ffffff;fill-opacity:1;stroke:#ffffff;stroke-width:0.19514497;stroke-linecap:butt;stroke-linejoin:miter;stroke-miterlimit:4;stroke-dasharray:none;stroke-opacity:1"><path
           id="path4419"
           style="fill:#ffffff;stroke:#ffffff;stroke-width:0.19514497;stroke-miterlimit:4;stroke-dasharray:none;stroke-opacity:1"
           d="m 53.201882,11.519476 q 0,1.419849 -0.842444,2.262294 -0.946566,1.00336 -2.48947,1.00336 -1.476644,0 -2.498935,-1.022292 -1.022292,-1.022292 -1.022292,-2.517867 0,-1.4955747 1.022292,-2.5178665 1.022291,-1.0222918 2.498935,-1.0222918 0.747788,0 1.410384,0.2650386 0.662597,0.2650386 1.088552,0.7477876 L 51.74417,9.3423727 Q 51.431803,8.9637461 50.930123,8.7555015 50.437908,8.5377912 49.869968,8.5377912 q -1.107483,0 -1.874202,0.7667189 -0.757253,0.7761849 -0.757253,1.9404609 0,1.164277 0.757253,1.940462 0.766719,0.766719 1.874202,0.766719 1.012826,0 1.684888,-0.56794 0.672063,-0.56794 0.776185,-1.561835 l -2.461073,0 0,-0.814047 3.284586,0 q 0.04733,0.265038 0.04733,0.511146 z" /><path
           id="path4421"
           style="fill:#ffffff;stroke:#ffffff;stroke-width:0.19514497;stroke-miterlimit:4;stroke-dasharray:none;stroke-opacity:1"
           d="m 58.436614,7.8562633 0,0.8329786 -3.085807,0 0,2.1487061 2.782905,0 0,0.814047 -2.782905,0 0,2.148706 3.085807,0 0,0.832978 -3.956648,0 0,-6.7774157 3.956648,0 z" /><path
           id="path4423"
           style="fill:#ffffff;stroke:#ffffff;stroke-width:0.19514497;stroke-miterlimit:4;stroke-dasharray:none;stroke-opacity:1"
           d="m 62.149148,8.6892419 0,5.9444371 -0.870841,0 0,-5.9444371 -1.893133,0 0,-0.8329786 4.657107,0 0,0.8329786 -1.893133,0 z" /><path
           id="path4425"
           style="fill:#ffffff;stroke:#ffffff;stroke-width:0.19514497;stroke-miterlimit:4;stroke-dasharray:none;stroke-opacity:1"
           d="m 68.342054,14.633679 -0.870841,0 0,-6.7774157 0.870841,0 0,6.7774157 z" /><path
           id="path4427"
           style="fill:#ffffff;stroke:#ffffff;stroke-width:0.19514497;stroke-miterlimit:4;stroke-dasharray:none;stroke-opacity:1"
           d="m 72.237838,8.6892419 0,5.9444371 -0.870841,0 0,-5.9444371 -1.893133,0 0,-0.8329786 4.657107,0 0,0.8329786 -1.893133,0 z" /><path
           id="path4429"
           style="fill:#ffffff;stroke:#ffffff;stroke-width:0.19514497;stroke-miterlimit:4;stroke-dasharray:none;stroke-opacity:1"
           d="m 84.010456,11.244971 q 0,1.505041 -1.00336,2.517867 -1.012826,1.022292 -2.480004,1.022292 -1.476644,0 -2.480004,-1.022292 -1.003361,-1.012826 -1.003361,-2.517867 0,-1.5050403 1.003361,-2.5178665 1.00336,-1.0222918 2.480004,-1.0222918 1.476644,0 2.480004,1.0317575 1.00336,1.0128261 1.00336,2.5084008 z m -6.076956,0 q 0,1.173743 0.738321,1.940462 0.747788,0.766719 1.855271,0.766719 1.107483,0 1.845804,-0.766719 0.747788,-0.757254 0.747788,-1.940462 0,-1.183208 -0.747788,-1.9404609 -0.738321,-0.7667189 -1.845804,-0.7667189 -1.107483,0 -1.855271,0.7667189 Q 77.9335,10.071229 77.9335,11.244971 Z" /><path
           id="path4431"
           style="fill:#ffffff;stroke:#ffffff;stroke-width:0.19514497;stroke-miterlimit:4;stroke-dasharray:none;stroke-opacity:1"
           d="m 86.138233,14.633679 -0.870841,0 0,-6.7774157 1.060154,0 3.294052,5.2723757 0.03786,0 -0.03786,-1.306262 0,-3.9661137 0.870841,0 0,6.7774157 -0.908704,0 -3.445502,-5.5279479 -0.03786,0 0.03786,1.3062619 0,4.221686 z" /></g></g></g></svg>
