<?xml version="1.0" encoding="UTF-8" standalone="no"?>
<svg
   xmlns:dc="http://purl.org/dc/elements/1.1/"
   xmlns:cc="http://creativecommons.org/ns#"
   xmlns:rdf="http://www.w3.org/1999/02/22-rdf-syntax-ns#"
   xmlns:svg="http://www.w3.org/2000/svg"
   xmlns="http://www.w3.org/2000/svg"
   version="1.1"
   id="svg2"
   viewBox="0 0 48.000001 48.000001"
   height="48"
   width="48">
  <defs
     id="defs4" />
  <metadata
     id="metadata7">
    <rdf:RDF>
      <cc:Work
         rdf:about="">
        <dc:format>image/svg+xml</dc:format>
        <dc:type
           rdf:resource="http://purl.org/dc/dcmitype/StillImage" />
        <dc:title></dc:title>
      </cc:Work>
    </rdf:RDF>
  </metadata>
  <g
     transform="translate(0,-1004.3622)"
     id="layer1">
    <g
       id="text4147"
       style="font-style:normal;font-variant:normal;font-weight:normal;font-stretch:normal;font-size:36.84490585px;line-height:125%;font-family:Ubuntu;-inkscape-font-specification:Ubuntu;letter-spacing:0px;word-spacing:0px;fill:#000000;fill-opacity:1;stroke:none;stroke-width:1px;stroke-linecap:butt;stroke-linejoin:miter;stroke-opacity:1;opacity:1">
      <path
         id="path4158"
         style="font-style:normal;font-variant:normal;font-weight:bold;font-stretch:normal;font-size:36.84490585px;line-height:125%;font-family:sans-serif;-inkscape-font-specification:'sans-serif Bold';text-align:start;writing-mode:lr-tb;text-anchor:start;opacity:1;fill:#ffffff;fill-opacity:1"
         d="m 30.998906,1014.3654 0,4.9979 -2.7333,0 c -0.911528,0 -1.547198,-0.026 -1.907012,0.3093 -0.297313,0.3942 -0.356126,0.3765 -0.356126,1.1335 l 0,2.5522 4.996319,0 0,5.0102 -4.996319,0 0,13.9905 -5.999256,0 0,-13.9905 -3.002119,0 0,-5.0102 3.002119,0 0,-2.5522 c 0,-2.1948 -0.01332,-3.8139 1.21005,-4.8574 1.223365,-1.0556 3.118383,-1.5833 5.685053,-1.5833 z" />
      <path
         id="path4136"
         transform="translate(0,1004.3622)"
         d="M 24 0 A 24 24 0 0 0 0 24 A 24 24 0 0 0 24 48 A 24 24 0 0 0 48 24 A 24 24 0 0 0 24 0 z M 24 2.375 A 21.625 21.625 0 0 1 45.625 24 A 21.625 21.625 0 0 1 24 45.625 A 21.625 21.625 0 0 1 2.375 24 A 21.625 21.625 0 0 1 24 2.375 z "
         style="opacity:1;fill:#ffffff;fill-opacity:1;fill-rule:nonzero;stroke:none;stroke-width:0.40000001;stroke-linecap:round;stroke-linejoin:round;stroke-miterlimit:4;stroke-dasharray:none;stroke-dashoffset:0;stroke-opacity:1" />
    </g>
  </g>
</svg>
